{
  "accessors": [
    {
      "bufferView": 2,
      "componentType": 5126,
      "count": 38644,
      "max": [
        0.0337657630443573,
        0.0492028072476387,
        0.0877123549580574
      ],
      "min": [
        -0.033874839544296265,
        -0.04899567365646362,
        -2.9802322387695313e-08
      ],
      "type": "VEC3"
    },
    {
      "bufferView": 2,
      "byteOffset": 463728,
      "componentType": 5126,
      "count": 38644,
      "type": "VEC3"
    },
    {
      "bufferView": 3,
      "componentType": 5126,
      "count": 38644,
      "type": "VEC4"
    },
    {
      "bufferView": 1,
      "componentType": 5126,
      "count": 38644,
      "type": "VEC2"
    },
    {
      "bufferView": 1,
      "byteOffset": 309152,
      "componentType": 5126,
      "count": 38644,
      "type": "VEC2"
    },
    {
      "bufferView": 1,
      "byteOffset": 618304,
      "componentType": 5126,
      "count": 38644,
      "type": "VEC2"
    },
    {
      "bufferView": 0,
      "componentType": 5125,
      "count": 175014,
      "type": "SCALAR"
    }
  ],
  "asset": {
    "generator": "fab-model-conversion",
    "version": "2.0"
  },
  "bufferViews": [
    {
      "buffer": 0,
      "byteLength": 700056,
      "target": 34963
    },
    {
      "buffer": 0,
      "byteLength": 927456,
      "byteOffset": 700056,
      "byteStride": 8,
      "target": 34962
    },
    {
      "buffer": 0,
      "byteLength": 927456,
      "byteOffset": 1627512,
      "byteStride": 12,
      "target": 34962
    },
    {
      "buffer": 0,
      "byteLength": 618304,
      "byteOffset": 2554968,
      "byteStride": 16,
      "target": 34962
    }
  ],
  "buffers": [
    {
      "byteLength": 3173272,
      "uri": "scene.bin"
    }
  ],
  "images": [
    {
      "uri": "textures/HumanBrain_Texture_baseColor.png"
    },
    {
      "uri": "textures/HumanBrain_Texture_metallicRoughness.png"
    },
    {
      "uri": "textures/HumanBrain_Texture_normal.png"
    }
  ],
  "materials": [
    {
      "doubleSided": true,
      "name": "HumanBrain_Texture",
      "normalTexture": {
        "index": 2
      },
      "pbrMetallicRoughness": {
        "baseColorTexture": {
          "index": 0
        },
        "metallicFactor": 0.0,
        "metallicRoughnessTexture": {
          "index": 1
        }
      }
    }
  ],
  "meshes": [
    {
      "name": "Stylized Human Brain_HumanBrain_Texture_0",
      "primitives": [
        {
          "attributes": {
            "NORMAL": 1,
            "POSITION": 0,
            "TANGENT": 2,
            "TEXCOORD_0": 3,
            "TEXCOORD_1": 4,
            "TEXCOORD_2": 5
          },
          "indices": 6,
          "material": 0,
          "mode": 4
        }
      ]
    }
  ],
  "nodes": [
    {
      "children": [
        1
      ],
      "matrix": [
        1.0,
        0.0,
        0.0,
        0.0,
        0.0,
        2.220446049250313e-16,
        -1.0,
        0.0,
        0.0,
        1.0,
        2.220446049250313e-16,
        0.0,
        0.0,
        0.0,
        0.0,
        1.0
      ],
      "name": "Sketchfab_model"
    },
    {
      "children": [
        2
      ],
      "matrix": [
        0.009999999776482582,
        0.0,
        0.0,
        0.0,
        0.0,
        0.0,
        0.009999999776482582,
        0.0,
        0.0,
        -0.009999999776482582,
        0.0,
        0.0,
        0.0,
        0.0,
        0.0,
        1.0
      ],
      "name": "stylizedhumanbrain.fbx"
    },
    {
      "children": [
        3
      ],
      "name": "RootNode"
    },
    {
      "children": [
        4
      ],
      "matrix": [
        100.0,
        0.0,
        0.0,
        0.0,
        0.0,
        -1.629206793918314e-05,
        -99.99999999999868,
        0.0,
        0.0,
        99.99999999999868,
        -1.629206793918314e-05,
        0.0,
        0.0,
        0.0,
        0.0,
        1.0
      ],
      "name": "Stylized Human Brain"
    },
    {
      "mesh": 0,
      "name": "Stylized Human Brain_HumanBrain_Texture_0"
    }
  ],
  "samplers": [
    {
      "magFilter": 9729,
      "minFilter": 9987,
      "wrapS": 10497,
      "wrapT": 10497
    }
  ],
  "scene": 0,
  "scenes": [
    {
      "name": "Sketchfab_Scene",
      "nodes": [
        0
      ]
    }
  ],
  "textures": [
    {
      "sampler": 0,
      "source": 0
    },
    {
      "sampler": 0,
      "source": 1
    },
    {
      "sampler": 0,
      "source": 2
    }
  ]
}
